Coordinates
version=1
nRows=18
nColumns=63
inDegrees=yes

Units are S.I. units (second, meters, Newtons, ...)
If the header above contains a line with 'inDegrees', this indicates whether rotational values are in degrees (yes) or radians (no).

endheader
time	pelvis_tilt	pelvis_list	pelvis_rotation	pelvis_tx	pelvis_ty	pelvis_tz	hip_flexion_r	hip_adduction_r	hip_rotation_r	knee_angle_r	knee_angle_r_beta	ankle_angle_r	subtalar_angle_r	mtp_angle_r	hip_flexion_l	hip_adduction_l	hip_rotation_l	knee_angle_l	knee_angle_l_beta	ankle_angle_l	subtalar_angle_l	mtp_angle_l	L5_S1_Flex_Ext	L5_S1_Lat_Bending	L5_S1_axial_rotation	L4_L5_Flex_Ext	L4_L5_Lat_Bending	L4_L5_axial_rotation	L3_L4_Flex_Ext	L3_L4_Lat_Bending	L3_L4_axial_rotation	L2_L3_Flex_Ext	L2_L3_Lat_Bending	L2_L3_axial_rotation	L1_L2_Flex_Ext	L1_L2_Lat_Bending	L1_L2_axial_rotation	L1_T12_Flex_Ext	L1_T12_Lat_Bending	L1_T12_axial_rotation	Abs_r3	Abs_r2	Abs_r1	Abs_t1	Abs_t2	neck_flexion	neck_bending	neck_rotation	arm_flex_r	arm_add_r	arm_rot_r	elbow_flex_r	pro_sup_r	wrist_flex_r	wrist_dev_r	arm_flex_l	arm_add_l	arm_rot_l	elbow_flex_l	pro_sup_l	wrist_flex_l	wrist_dev_l
1.566667	-2.761022	-3.932156	101.880587	0.180691	0.753543	0.752364	1.543446	-3.227751	-19.125516	10.480002	0.182911	33.385739	8.919969	0.000000	2.749891	4.649174	20.985108	3.429012	0.059848	28.199505	-11.945215	0.000000	0.159924	-0.191299	-0.702171	0.296996	-0.254428	-0.746057	0.262740	-0.465125	-0.746057	0.182778	-0.465125	-0.614400	0.148506	-0.390097	-0.570514	0.091381	-0.296322	-0.526628	1.142324	-2.164015	-3.905266	0.000000	0.000000	22.159258	-3.357474	-6.525708	2.581442	-22.847044	35.381060	26.107336	66.913994	0.045175	6.960672	7.303794	-21.224621	124.739717	8.174688	27.746874	-15.912534	-10.328173
1.583333	-2.828398	-4.018912	101.609074	0.181054	0.753290	0.752432	1.674324	-3.323273	-18.971205	10.462100	0.182598	33.558524	9.201460	0.000000	2.616136	4.654104	20.927202	2.920601	0.050974	28.235527	-11.957437	0.000000	0.164127	-0.201851	-0.751800	0.304800	-0.268462	-0.798787	0.269644	-0.490781	-0.798787	0.187581	-0.490781	-0.657825	0.152408	-0.411615	-0.610837	0.093782	-0.312668	-0.563850	1.172343	-2.283381	-4.181284	0.000000	0.000000	22.305724	-2.936870	-6.197536	2.903528	-22.843754	35.874218	26.047078	66.338762	-0.264729	7.134556	6.796307	-20.965869	129.889396	6.875577	22.279912	-15.390788	-11.764680
1.600000	-2.866469	-4.119473	101.350132	0.181385	0.752934	0.752656	1.824496	-3.393796	-18.851705	10.441370	0.182236	33.706372	9.478900	0.000000	2.543168	4.641485	20.803808	2.476087	0.043216	28.353331	-11.902659	0.000000	0.169272	-0.208148	-0.788201	0.314355	-0.276836	-0.837463	0.278097	-0.506090	-0.837463	0.193461	-0.506090	-0.689676	0.157186	-0.424454	-0.640413	0.096722	-0.322421	-0.591151	1.209093	-2.354607	-4.383737	0.000000	0.000000	22.467961	-2.549606	-5.893417	3.179704	-22.797688	36.269479	25.941636	66.103344	-0.293924	7.426997	6.261861	-20.698293	133.347871	5.828435	17.328027	-14.487199	-12.908434
1.616667	-2.859281	-4.223371	101.105531	0.181609	0.752559	0.753021	1.981513	-3.426835	-18.802757	10.412963	0.181740	33.809966	9.802394	0.000000	2.526629	4.599809	20.602838	2.111323	0.036850	28.535192	-11.773899	0.000000	0.174732	-0.206130	-0.804379	0.324495	-0.274153	-0.854652	0.287068	-0.501185	-0.854652	0.199701	-0.501185	-0.703831	0.162256	-0.420341	-0.653558	0.099842	-0.319296	-0.603284	1.248095	-2.331787	-4.473713	0.000000	0.000000	22.604844	-2.236531	-5.593687	3.370192	-22.738156	36.479939	25.821196	66.344527	-0.044611	7.801275	6.140326	-20.320822	139.201890	4.300559	9.493650	-12.796564	-14.308719
1.633333	-2.839199	-4.326002	100.882014	0.181869	0.752137	0.753454	2.132150	-3.442742	-18.803623	10.373589	0.181053	33.898297	10.153278	0.000000	2.556719	4.556693	20.413180	1.840872	0.032129	28.734982	-11.685181	0.000000	0.179083	-0.202400	-0.805382	0.332574	-0.269192	-0.855718	0.294215	-0.492116	-0.855718	0.204673	-0.492116	-0.704709	0.166296	-0.412734	-0.654373	0.102328	-0.313518	-0.604037	1.279169	-2.289591	-4.479293	0.000000	0.000000	22.722829	-1.941855	-5.347334	3.510647	-22.637536	36.676409	25.685617	66.814115	0.365952	8.229806	5.778099	-20.045594	140.607151	3.520995	4.803779	-11.010605	-15.019824
1.650000	-2.807212	-4.422577	100.677063	0.182202	0.751698	0.753937	2.269674	-3.434564	-18.807706	10.314747	0.180026	33.965405	10.490101	0.000000	2.633703	4.510545	20.162532	1.683618	0.029385	28.956076	-11.539001	0.000000	0.181948	-0.197486	-0.790998	0.337895	-0.262656	-0.840436	0.298922	-0.480167	-0.840436	0.207948	-0.480167	-0.692124	0.168957	-0.402713	-0.642686	0.103965	-0.305905	-0.593249	1.299636	-2.233998	-4.399296	0.000000	0.000000	22.800513	-1.666826	-5.173260	3.601647	-22.492959	36.830409	25.551664	67.404449	0.908755	8.714741	5.202928	-19.892929	137.744436	3.455110	3.309601	-9.150824	-15.104999
1.666667	-2.771083	-4.506052	100.486031	0.182631	0.751263	0.754426	2.382203	-3.410412	-18.856942	10.234414	0.178624	34.023509	10.878657	0.000000	2.741066	4.468647	19.933235	1.638179	0.028592	29.145914	-11.445273	0.000000	0.182979	-0.192558	-0.763380	0.339810	-0.256102	-0.811091	0.300616	-0.468186	-0.811091	0.209127	-0.468186	-0.667958	0.169914	-0.392665	-0.620246	0.104554	-0.298273	-0.572535	1.307001	-2.178257	-4.245691	0.000000	0.000000	22.825420	-1.404602	-5.053030	3.635840	-22.294011	36.856825	25.444021	68.072612	1.551973	9.255759	4.424217	-19.880008	130.782158	4.058825	5.146503	-7.277189	-14.662841
1.683333	-2.726108	-4.559851	100.290732	0.183192	0.750855	0.754898	2.455756	-3.351075	-18.812466	10.127844	0.176764	34.052611	11.160254	0.000000	2.873441	4.419093	19.593449	1.733296	0.030252	29.358517	-11.234130	0.000000	0.180011	-0.187345	-0.720399	0.334298	-0.249169	-0.765424	0.295740	-0.455511	-0.765424	0.205734	-0.455511	-0.630349	0.167158	-0.382035	-0.585325	0.102858	-0.290198	-0.540300	1.285800	-2.119288	-4.006645	0.000000	0.000000	22.806389	-1.176390	-5.030042	3.585530	-22.053587	36.658178	25.436850	68.611293	2.219667	9.906907	3.484206	-20.011067	120.122865	5.248946	10.269653	-5.569274	-13.845016
1.700000	-2.677781	-4.581855	100.085604	0.183837	0.750540	0.755323	2.480714	-3.271928	-18.755520	9.990149	0.174361	34.045269	11.436919	0.000000	2.993647	4.366870	19.277631	1.905841	0.033263	29.509382	-11.078679	0.000000	0.174045	-0.181210	-0.667382	0.323218	-0.241009	-0.709093	0.285938	-0.440593	-0.709093	0.198916	-0.440593	-0.583959	0.161618	-0.369523	-0.542248	0.099449	-0.280694	-0.500537	1.243184	-2.049880	-3.711779	0.000000	0.000000	22.737661	-1.016995	-5.017813	3.476331	-21.783475	36.275008	25.493646	68.997881	2.927383	10.528249	2.787591	-19.994604	112.110372	6.288260	13.034101	-3.934343	-13.350754
1.716667	-2.628787	-4.597163	99.883971	0.184594	0.750261	0.755648	2.488441	-3.170479	-18.575416	9.840079	0.171742	34.007812	11.537410	0.000000	3.131649	4.310608	18.903387	2.163756	0.037765	29.647287	-10.855493	0.000000	0.169761	-0.176557	-0.608800	0.315263	-0.234820	-0.646850	0.278900	-0.429280	-0.646850	0.194020	-0.429280	-0.532700	0.157640	-0.360034	-0.494650	0.097001	-0.273486	-0.456600	1.212585	-1.997243	-3.385962	0.000000	0.000000	22.646778	-0.884924	-5.039509	3.281387	-21.480744	35.720733	25.656271	68.955184	3.596486	11.115941	2.127747	-20.085311	103.671732	7.537714	16.467882	-2.701387	-12.918776
1.733333	-2.588271	-4.587661	99.701870	0.185437	0.750045	0.755868	2.452349	-3.068884	-18.489485	9.681488	0.168974	33.968244	11.722534	0.000000	3.264642	4.265141	18.625209	2.497211	0.043585	29.745218	-10.794927	0.000000	0.163455	-0.174698	-0.554927	0.303552	-0.232349	-0.589610	0.268540	-0.424761	-0.589610	0.186812	-0.424761	-0.485561	0.151784	-0.356245	-0.450878	0.093398	-0.270608	-0.416195	1.167540	-1.976222	-3.086338	0.000000	0.000000	22.561476	-0.826016	-5.122741	3.037751	-21.133604	34.921980	25.900946	69.017215	4.303733	11.617134	1.419104	-20.224685	94.316094	9.112132	21.054714	-1.716562	-12.260655
1.750000	-2.574371	-4.567416	99.524110	0.186372	0.749891	0.755884	2.381774	-2.982463	-18.401369	9.512909	0.166032	33.934931	11.878003	0.000000	3.362685	4.227985	18.225684	2.817918	0.049182	29.826267	-10.575549	0.000000	0.158411	-0.177834	-0.504455	0.294185	-0.236520	-0.535984	0.260254	-0.432386	-0.535984	0.181048	-0.432386	-0.441398	0.147101	-0.362640	-0.409870	0.090516	-0.275465	-0.378342	1.131514	-2.011697	-2.805629	0.000000	0.000000	22.484023	-0.780901	-5.174164	2.735775	-20.746180	33.961578	26.217801	68.859777	4.958958	12.001532	0.662652	-20.418761	84.775509	10.846051	26.530284	-1.307454	-11.432660
1.766667	-2.588849	-4.520914	99.353077	0.187383	0.749826	0.755709	2.256648	-2.914030	-18.352370	9.328282	0.162809	33.902638	12.050924	0.000000	3.408158	4.204409	17.775843	3.115141	0.054369	29.881387	-10.306542	0.000000	0.151407	-0.186306	-0.457973	0.281179	-0.247786	-0.486596	0.248747	-0.452983	-0.486596	0.173043	-0.452983	-0.400726	0.140597	-0.379914	-0.372103	0.086514	-0.288587	-0.343479	1.081487	-2.107526	-2.547106	0.000000	0.000000	22.426813	-0.778735	-5.262666	2.443935	-20.380013	33.225459	26.599055	68.215078	5.479009	12.244950	-0.135578	-20.636906	74.948065	12.758516	33.110729	-1.348325	-10.258918
1.783333	-2.628852	-4.481583	99.179452	0.188433	0.749790	0.755358	2.129907	-2.871226	-18.305389	9.155040	0.159786	33.873888	12.205211	0.000000	3.453665	4.204025	17.273939	3.413872	0.059583	29.920441	-10.048737	0.000000	0.147659	-0.199214	-0.414062	0.274217	-0.264955	-0.439941	0.242589	-0.484369	-0.439941	0.168759	-0.484369	-0.362305	0.137116	-0.406237	-0.336426	0.084372	-0.308583	-0.310547	1.054713	-2.253550	-2.302891	0.000000	0.000000	22.405044	-0.825852	-5.348617	2.122906	-20.021668	32.456458	27.038061	67.414867	5.922333	12.337233	-0.981125	-20.859707	65.149021	14.758423	40.341740	-1.697991	-8.805237
1.800000	-2.696977	-4.428175	99.003157	0.189502	0.749806	0.754810	1.975723	-2.856176	-18.287360	8.992194	0.156943	33.865928	12.386137	0.000000	3.449398	4.223035	16.781760	3.662928	0.063930	29.913319	-9.849488	0.000000	0.144431	-0.216501	-0.372587	0.268223	-0.287946	-0.395873	0.237285	-0.526400	-0.395873	0.165070	-0.526400	-0.326013	0.134118	-0.441488	-0.302727	0.082528	-0.335360	-0.279440	1.031655	-2.449100	-2.072216	0.000000	0.000000	22.402653	-0.913276	-5.458244	1.793584	-19.670435	31.673290	27.493559	66.435835	6.298720	12.326209	-1.871113	-21.080253	55.532552	16.770415	47.918558	-2.204845	-7.171283
1.816667	-2.791422	-4.348029	98.832211	0.190561	0.749883	0.754111	1.782192	-2.861884	-18.238902	8.835289	0.154205	33.866229	12.511131	0.000000	3.378178	4.257117	16.272219	3.852200	0.067234	29.874910	-9.636174	0.000000	0.139327	-0.237471	-0.334561	0.258745	-0.315836	-0.355472	0.228901	-0.577386	-0.355472	0.159237	-0.577386	-0.292741	0.129379	-0.484250	-0.271831	0.079612	-0.367842	-0.250921	0.995201	-2.686317	-1.860730	0.000000	0.000000	22.419424	-1.030464	-5.599910	1.488545	-19.333367	30.959772	27.923413	65.248852	6.581587	12.220902	-2.766269	-21.298148	46.386858	18.695196	55.425851	-2.760978	-5.519247
1.833333	-2.901618	-4.268369	98.641782	0.191598	0.749945	0.753261	1.592727	-2.883406	-18.094257	8.699310	0.151832	33.878801	12.523865	0.000000	3.286030	4.300066	15.497984	4.015479	0.070083	29.919989	-9.077101	0.000000	0.137483	-0.260317	-0.296858	0.255320	-0.346222	-0.315412	0.225871	-0.632935	-0.315412	0.157129	-0.632935	-0.259751	0.127667	-0.530838	-0.241197	0.078558	-0.403231	-0.222644	0.982027	-2.944758	-1.651036	0.000000	0.000000	22.471060	-1.167000	-5.735555	1.199561	-19.018476	30.283131	28.341121	63.877291	6.770783	12.157410	-3.704978	-21.472483	37.674796	20.560491	62.751652	-3.298552	-3.732683
1.850000	-3.021459	-4.177701	98.466232	0.192524	0.750016	0.752314	1.393966	-2.922125	-17.961844	8.591828	0.149956	33.906114	12.515170	0.000000	3.142433	4.352922	14.895159	4.113438	0.071793	29.911512	-8.705847	0.000000	0.136827	-0.283685	-0.264500	0.254101	-0.377301	-0.281031	0.224793	-0.689751	-0.281031	0.156379	-0.689751	-0.231437	0.127057	-0.578490	-0.214906	0.078183	-0.439428	-0.198375	0.977339	-3.209100	-1.471068	0.000000	0.000000	22.541661	-1.315201	-5.887758	0.991076	-18.746312	29.873415	28.665804	62.423669	6.855827	12.040689	-4.577965	-21.622565	30.068394	22.189641	69.292816	-3.782609	-2.089999
